<svg id="Layer_1" data-name="Layer 1" xmlns="http://www.w3.org/2000/svg" viewBox="0 0 1000 1000"><defs><style>.cls-1{fill:#0071bc;}.cls-2,.cls-5{fill:none;}.cls-3{fill:#fff;}.cls-4{fill:#ff4123;}.cls-5{stroke:#fff;stroke-miterlimit:10;stroke-width:2px;}</style></defs><title>logo</title><rect class="cls-1" width="1000" height="1000"/><path class="cls-2" d="M630.64,624.53c8.8,4,15.66-5.25,13.75-15.69C635.43,607.88,620,615,630.64,624.53Z" transform="translate(0 -1)"/><path class="cls-2" d="M329.48,455.45c-2.45-19-24.19-14.89-23.61,5.28C305.93,484.84,333.31,484.76,329.48,455.45Z" transform="translate(0 -1)"/><path class="cls-2" d="M574.51,455.24c-3.69-24.44-34.33-4.12-18,18.21C567.31,483.59,577.36,469.29,574.51,455.24Z" transform="translate(0 -1)"/><path class="cls-2" d="M638.48,589.46l-1.32.15-10.23,10.14C638.88,596.79,650.3,598.52,638.48,589.46Z" transform="translate(0 -1)"/><path class="cls-2" d="M731.62,600.42c.07-.06,20,0,22,0C754.24,587,733.88,583.63,731.62,600.42Z" transform="translate(0 -1)"/><path class="cls-3" d="M275.79,414.4C251.61,402.91,235,445,228.33,450.14c-3.75-19.94,12.32-41.32-18.42-35.74,6.18,7-15.77,96.43,14.77,82.22,11.79,5.47-8.51-77.93,29.67-2.36l14.11-14c-6.49-9.55-16.29-21.23-19.67-30.51C245.88,451.79,275.91,414.81,275.79,414.4Z" transform="translate(0 -1)"/><path class="cls-4" d="M263.54,490.61c24.26,4.9,21.39-3.91,12.92-16.35l-14.11,14Z" transform="translate(0 -1)"/><path class="cls-4" d="M349.06,461.12c.1-18.78-13.54-28.72-28.11-30l-34.22,33.95c.1.88.22,1.77.38,2.68C293.21,504,349.67,499.91,349.06,461.12Zm-19.58-4.67c3.83,29.31-23.55,29.39-23.61,5.28C305.29,441.56,327,437.41,329.48,456.45Z" transform="translate(0 -1)"/><path class="cls-3" d="M278.73,470.08,313,436.13C295.15,434.59,276,446,278.73,470.08Z" transform="translate(0 -1)"/><path class="cls-4" d="M411.52,440.75c-6.79-12.6-25.11-12.52-32.77-3.16-6.86-7-22.15-13.68-18.22,13.41,4.51,11.6-13.48,48.95,17.06,40.62-5.21-33.69,20.48-84.44,18.92-2.47,10.34,6.9,22.75,7.91,18.05-31.84C429.65,421.94,435.49,469,432.63,491,465.72,510.14,456.81,396,411.52,440.75Z" transform="translate(0 -1)"/><path class="cls-4" d="M503,432.56c-1.48,11,4.66,42.14-5.47,44.37-27.79,7.63-2.41-46.27-17.39-45-22.88-12-22.78,58.63,3.72,61.72l38-37.64C523.4,440.7,525.12,423.84,503,432.56Z" transform="translate(0 -1)"/><path class="cls-3" d="M513.68,477.47c-1.13-3.92-.5-10,.15-16.42l-38,37.64c4.67.55,10.16-1,16.49-5.47,11.89-12.62-3.83,7.39,13.75,3.4C522.08,500.28,510.59,483.14,513.68,477.47Z" transform="translate(0 -1)"/><path class="cls-3" d="M566.75,490.27c-.43,31-34.13,9.06-33.08,14.22-17.26,14.41,64.9,59,51.87-67.53-5.19,1.45-19.38-4.7-16.71,7.08C519.93,405.09,504.66,518,566.75,490.27Zm-.24-29c2.85,14.05-7.2,28.35-18,18.21C532.18,457.12,562.82,436.8,566.51,461.24Z" transform="translate(0 -1)"/><path class="cls-3" d="M619.09,420.37c-1.6-7.22-6.24-9.19-9.88-9.39C583.43,420.3,616.23,440.9,619.09,420.37Z" transform="translate(0 -1)"/><path class="cls-3" d="M599.94,438.49c0,10.12,0,58.42,0,58.13,12.54-2.3,21.52,7.76,18.54-11.83C615.69,449.93,629,427,599.94,438.49Z" transform="translate(0 -1)"/><path class="cls-3" d="M550,607.29c-1.66-53.19,44.63-17,43.39-36.8-44.89-55-109.48,82.7-11.72,72.22L593,631.49C586.71,619.15,560.21,644.7,550,607.29Z" transform="translate(0 -1)"/><path class="cls-3" d="M602.3,634.7c.17-4.31-.32-7.24-1.32-9.21l-11.31,11.22C593.61,636.29,597.82,635.63,602.3,634.7Z" transform="translate(0 -1)"/><path class="cls-3" d="M614.11,583.77c-22.53,9.05-.56,13.35,15,11.84l11.44-11.34C634.06,580.51,625.33,579.66,614.11,583.77Z" transform="translate(0 -1)"/><path class="cls-4" d="M648.6,579.27l-11.44,11.34,1.32-.15c11.82,9.06.4,7.33-11.55,10.29l-18,17.85c-.08.79-.15,1.6-.17,2.46,5.73,35.53,41.3,3.46,37.82,17C667,648.24,673.08,593.32,648.6,579.27Zm-18,46.26c-10.62-9.53,4.79-16.65,13.75-15.69C646.3,620.28,639.44,629.57,630.64,625.53Z" transform="translate(0 -1)"/><path class="cls-3" d="M608.93,617.6l18-17.85C618.71,601.79,610.24,606.06,608.93,617.6Z" transform="translate(0 -1)"/><path class="cls-4" d="M712.39,564.5c5.42-20.14-11.55-14.94-20.53-12-17.22,6.61-5.65,28.92-20.51,25.82,1.24,5.51-4.49,16.73,7.81,13.67,0,1.06,0,46.26,0,46,40.27,8-.56-40,30.5-47.42C715.76,574.77,678.38,576.29,712.39,564.5Z" transform="translate(0 -1)"/><path class="cls-4" d="M716.64,595.31c-21.39,43.53,61.18,60.55,48.4,27.7-14,4.12-30.67,3.86-33.3-8.9C812.87,630.42,749,538.11,716.64,595.31Zm36.94,6.11c-2,0-21.89-.06-22,0C733.88,584.63,754.24,588,753.58,601.42Z" transform="translate(0 -1)"/><line class="cls-5" x1="433" y1="318" x2="66" y2="682"/><line class="cls-5" x1="659" y1="318" x2="292" y2="682"/><line class="cls-5" x1="910" y1="318" x2="543" y2="682"/></svg>