<?xml version="1.0" encoding="utf-8"?>
<!-- Generator: Adobe Illustrator 24.0.1, SVG Export Plug-In . SVG Version: 6.00 Build 0)  -->
<svg version="1.1" id="Layer_1" xmlns="http://www.w3.org/2000/svg" xmlns:xlink="http://www.w3.org/1999/xlink" x="0px" y="0px"
	 viewBox="0 0 100 100" style="enable-background:new 0 0 100 100;" xml:space="preserve">
<style type="text/css">
	.st0{fill:none;}
	.st1{fill:#FFFF00;}
	.st2{fill:#FCEE21;}
	.st3{fill:#FF4123;}
	.st4{fill:#FFFFFF;}
</style>
<path class="st0" d="M65.44,67.03c1.01,0.46,1.8-0.6,1.58-1.8C65.99,65.12,64.22,65.94,65.44,67.03z"/>
<path class="st0" d="M30.9,47.65c-0.28-2.18-2.77-1.71-2.71,0.61C28.2,51.02,31.34,51.01,30.9,47.65z"/>
<path class="st0" d="M59,47.62c-0.42-2.8-3.94-0.47-2.07,2.09C58.17,50.87,59.33,49.23,59,47.62z"/>
<path class="st1" d="M67.34,64.01c-0.05,0.01-0.1,0.01-0.15,0.02l-1.17,1.16C67.38,64.85,68.69,65.05,67.34,64.01z"/>
<path class="st0" d="M77.02,64.27c0.01-0.01,2.29,0,2.52,0C79.61,62.73,77.27,62.34,77.02,64.27z"/>
<path class="st2" d="M24.75,40.94c-2.77-1.32-4.68,3.5-5.44,4.1c-0.43-2.29,1.41-4.74-2.11-4.1c0.71,0.81-1.81,11.06,1.69,9.43
	c1.35,0.63-0.98-8.94,3.4-0.27l1.62-1.61c-0.75-1.09-1.87-2.43-2.26-3.5C21.32,45.23,24.76,40.99,24.75,40.94z"/>
<path class="st2" d="M23.15,51.62c3.03,0.78,2.67-0.63,1.61-2.62L23,51.24C23.05,51.36,23.1,51.49,23.15,51.62z"/>
<path class="st3" d="M33.15,48.3c0.01-2.15-1.55-3.29-3.22-3.44L26,48.75c0.01,0.1,0.03,0.2,0.04,0.31
	C26.74,53.21,33.22,52.74,33.15,48.3z M30.9,47.76c0.44,3.36-2.7,3.37-2.71,0.61C28.13,46.05,30.62,45.58,30.9,47.76z"/>
<path class="st2" d="M25.08,47.32l3.92-3.89C26.97,43.25,24.77,44.56,25.08,47.32z"/>
<path class="st3" d="M40.31,45.96c-0.78-1.45-2.88-1.44-3.76-0.36c-0.79-0.81-2.54-1.57-2.09,1.54c0.52,1.33-1.54,5.61,1.96,4.66
	c-0.6-3.86,2.35-9.68,2.17-0.28c1.19,0.79,2.61,0.91,2.07-3.65c1.73-4.06,2.4,1.34,2.07,3.86C46.53,53.92,45.5,40.83,40.31,45.96z"
	/>
<path class="st3" d="M50.8,45.02c-0.17,1.26,0.53,4.83-0.63,5.09c-3.19,0.88-0.28-5.31-1.99-5.16c-2.62-1.38-2.61,6.72,0.43,7.08
	l4.35-4.32C53.14,45.96,53.34,44.02,50.8,45.02z"/>
<path class="st2" d="M53.03,51.17c-0.13-0.45-0.06-1.15,0.02-1.88l-4.35,4.32c0.54,0.06,1.16-0.11,1.89-0.63
	c1.36-1.45-0.44,0.85,1.58,0.39C53.99,53.79,52.67,51.82,53.03,51.17z"/>
<path class="st2" d="M59.11,52.64c-0.05,3.55-3.91,1.04-3.79,1.63c-1.98,1.65,7.44,6.76,5.95-7.74c-0.59,0.17-2.22-0.54-1.92,0.81
	C53.74,42.87,51.99,55.82,59.11,52.64z M59.08,49.31c0.33,1.61-0.83,3.25-2.07,2.09C55.15,48.84,58.66,46.51,59.08,49.31z"/>
<path class="st2" d="M65.11,44.62c-0.18-0.83-0.72-1.05-1.13-1.08C61.02,44.62,64.78,46.98,65.11,44.62z"/>
<path class="st2" d="M62.92,46.7c0,1.16,0,6.7,0,6.67c1.44-0.26,2.47,0.89,2.13-1.36C64.72,48.01,66.25,45.38,62.92,46.7z"/>
<path class="st2" d="M62.19,60.06c-0.19-6.1,5.12-1.95,4.97-4.22c-5.15-6.31-12.55,9.48-1.34,8.28l1.3-1.29
	C66.4,61.42,63.36,64.35,62.19,60.06z"/>
<path class="st4" d="M62.19,68.2c0.02-0.49-0.04-0.83-0.15-1.06l-1.3,1.29C61.19,68.38,61.67,68.31,62.19,68.2z"/>
<path class="st2" d="M70.54,57.36c-2.58,1.04-0.06,1.53,1.73,1.36l1.31-1.3C72.83,56.99,71.83,56.89,70.54,57.36z"/>
<path class="st3" d="M73.5,58.84l-1.31,1.3c0.05,0,0.1-0.01,0.15-0.02c1.36,1.04,0.05,0.84-1.32,1.18l-2.06,2.05
	c-0.01,0.09-0.02,0.18-0.02,0.28c0.66,4.07,4.74,0.4,4.34,1.94C75.6,66.75,76.3,60.46,73.5,58.84z M71.44,64.15
	c-1.22-1.09,0.55-1.91,1.58-1.8C73.23,63.55,72.45,64.61,71.44,64.15z"/>
<path class="st1" d="M67.95,62.24l2.06-2.05C69.07,60.43,68.1,60.92,67.95,62.24z"/>
<path class="st3" d="M80.81,57.15c0.62-2.31-1.32-1.71-2.35-1.37c-1.97,0.76-0.65,3.32-2.35,2.96c0.14,0.63-0.51,1.92,0.9,1.57
	c0,0.12,0,5.3,0,5.27c4.62,0.92-0.06-4.59,3.5-5.44C81.2,58.33,76.91,58.5,80.81,57.15z"/>
<path class="st3" d="M81.3,60.68c-2.45,4.99,7.01,6.94,5.55,3.18c-1.61,0.47-3.52,0.44-3.82-1.02
	C92.33,64.71,85.01,54.13,81.3,60.68z M85.53,61.38c-0.23,0-2.51-0.01-2.52,0C83.27,59.46,85.61,59.84,85.53,61.38z"/>
</svg>
